# This file uses centimeters as units for non-parametric coordinates.

mtllib Bush_Small.mtl
g default
v 3.776468 0.166781 5.707860
v 3.615579 0.156188 5.574474
v 3.764234 0.272877 5.668407
v 3.593241 0.274374 5.571039
v 3.694052 0.239867 5.909968
v 3.518972 0.299699 5.790266
v 3.664599 0.123267 5.934230
v 3.487519 0.120986 5.737109
v 3.496542 0.196862 5.667978
v 3.775364 0.256895 5.811474
v 3.682033 0.330627 5.760379
v 3.600449 0.181398 5.915025
v 3.553077 0.240549 5.863019
v 3.577906 0.063097 5.732523
v 3.726245 0.063097 5.735485
v 3.679336 0.063097 5.864265
v 3.773828 0.198072 5.839313
v 3.751162 0.127097 5.790597
v 3.600597 0.294579 5.859366
v 3.647128 0.087614 5.639769
v 3.563124 0.122126 5.855897
v 3.628621 0.063097 5.798394
vt 0.375000 0.000000
vt 0.625000 0.000000
vt 0.375000 0.250000
vt 0.625000 0.250000
vt 0.375000 0.500000
vt 0.625000 0.500000
vt 0.375000 0.750000
vt 0.625000 0.750000
vt 0.375000 1.000000
vt 0.625000 1.000000
vt 0.875000 0.000000
vt 0.875000 0.250000
vt 0.125000 0.000000
vt 0.125000 0.250000
vt 0.750000 0.125000
vt 0.375000 0.375000
vt 0.250000 0.250000
vt 0.500000 0.312500
vt 0.500000 0.625000
vt 0.562500 0.562500
vt 0.500000 0.875000
vt 0.437500 0.937500
vt 0.437500 0.812500
vt 0.250000 0.125000
vt 0.250000 0.000000
vt 0.375000 0.875000
vt 0.500000 0.500000
vt 0.531250 0.968750
vt 0.500000 0.750000
vt 0.468750 0.843750
vn -0.767820 0.552715 -0.323973
vn -0.767820 0.552715 -0.323973
vn -0.767820 0.552715 -0.323973
vn -0.215588 0.959026 -0.183824
vn -0.215588 0.959026 -0.183824
vn -0.215588 0.959026 -0.183824
vn 0.384389 0.802633 0.456098
vn 0.384389 0.802633 0.456098
vn 0.384389 0.802633 0.456098
vn 0.225840 0.840797 0.491992
vn 0.225840 0.840797 0.491992
vn 0.225840 0.840797 0.491992
vn -0.139214 0.961796 0.235728
vn -0.139214 0.961796 0.235728
vn -0.139214 0.961796 0.235728
vn 0.997569 -0.060568 0.034457
vn 0.997569 -0.060568 0.034457
vn 0.997569 -0.060568 0.034457
vn 0.997569 -0.060568 0.034457
vn 0.219086 0.902475 -0.370864
vn 0.219086 0.902475 -0.370864
vn 0.219086 0.902475 -0.370864
vn 0.994212 -0.066058 -0.084724
vn 0.994212 -0.066058 -0.084724
vn 0.994212 -0.066058 -0.084724
vn 0.605197 0.794981 0.041725
vn 0.605197 0.794981 0.041725
vn 0.605197 0.794981 0.041725
vn 0.905178 -0.418126 0.076316
vn 0.905178 -0.418126 0.076316
vn 0.905178 -0.418126 0.076316
vn 0.494129 0.068204 -0.866709
vn 0.494129 0.068204 -0.866709
vn 0.494129 0.068204 -0.866709
vn 0.632671 -0.204770 -0.746858
vn 0.632671 -0.204770 -0.746858
vn 0.632671 -0.204770 -0.746858
vn 0.611668 -0.425929 -0.666668
vn 0.611668 -0.425929 -0.666668
vn 0.611668 -0.425929 -0.666668
vn 0.611668 -0.425929 -0.666668
vn -0.284410 0.423375 0.860154
vn -0.284410 0.423375 0.860154
vn -0.284410 0.423375 0.860154
vn -0.284410 0.423375 0.860154
vn -0.534596 0.515466 0.669703
vn -0.534596 0.515466 0.669703
vn -0.534596 0.515466 0.669703
vn -0.986068 0.159690 0.046569
vn -0.986068 0.159690 0.046569
vn -0.986068 0.159690 0.046569
vn -0.896712 0.026398 0.441827
vn -0.896712 0.026398 0.441827
vn -0.896712 0.026398 0.441827
vn -0.650555 -0.304753 -0.695632
vn -0.650555 -0.304753 -0.695632
vn -0.650555 -0.304753 -0.695632
vn -0.650555 -0.304753 -0.695632
vn 0.000000 -1.000000 0.000000
vn 0.000000 -1.000000 0.000000
vn 0.000000 -1.000000 0.000000
vn 0.000000 -1.000000 0.000000
vn -0.477835 -0.813337 0.331898
vn -0.477835 -0.813337 0.331898
vn -0.477836 -0.813337 0.331898
vn -0.477835 -0.813337 0.331898
vn 0.802097 -0.455175 0.386596
vn 0.802097 -0.455175 0.386596
vn 0.802097 -0.455175 0.386596
vn 0.802097 -0.455175 0.386596
vn -0.467755 -0.712809 -0.522597
vn -0.467755 -0.712809 -0.522597
vn -0.467755 -0.712809 -0.522597
vn -0.690948 -0.243797 0.680554
vn -0.690948 -0.243797 0.680554
vn -0.690948 -0.243797 0.680554
vn -0.690948 -0.243797 0.680554
vn 0.733512 -0.528006 0.427984
vn 0.733512 -0.528006 0.427984
vn 0.733512 -0.528006 0.427984
vn -0.087524 0.224077 0.970633
vn -0.087524 0.224077 0.970633
vn -0.087524 0.224077 0.970633
vn 0.686943 0.092719 0.720772
vn 0.686944 0.092719 0.720772
vn 0.686944 0.092719 0.720772
vn 0.686944 0.092719 0.720772
vn -0.218689 -0.890660 -0.398623
vn -0.218689 -0.890660 -0.398623
vn -0.218689 -0.890660 -0.398623
vn -0.218689 -0.890660 -0.398623
vn -0.838656 -0.103315 0.534772
vn -0.838656 -0.103315 0.534772
vn -0.838656 -0.103315 0.534772
vn -0.428506 -0.778625 0.458394
vn -0.428506 -0.778625 0.458394
vn -0.428506 -0.778625 0.458394
vn -0.428506 -0.778625 0.458394
s off
g Bushes_and_Trees:MapGamification:pCube178 Bushes_and_Trees:group1
usemtl Bushes_and_Trees:MapGamification:lambert8SG
f 9/15/1 6/12/2 4/4/3
f 6/6/4 11/18/5 4/4/6
f 11/18/7 5/5/8 10/16/9
f 11/18/10 19/27/11 5/5/12
f 19/27/13 11/18/14 6/6/15
f 1/1/16 3/3/17 17/24/18 18/25/19
f 11/18/20 3/3/21 4/4/22
f 10/17/23 17/24/24 3/3/25
f 3/3/26 11/18/27 10/16/28
f 18/26/29 15/22/30 1/9/31
f 3/3/32 2/2/33 4/4/34
f 2/2/35 3/3/36 1/1/37
f 15/22/38 20/28/39 2/10/40 1/9/41
f 19/27/42 13/20/43 12/19/44 5/5/45
f 13/20/46 19/27/47 6/6/48
f 6/12/49 9/15/50 8/11/51
f 8/8/52 13/20/53 6/6/54
f 2/2/55 8/11/56 9/15/57 4/4/58
f 15/22/59 16/23/60 22/30/61 14/21/62
f 21/29/63 8/8/64 14/21/65 22/30/66
f 18/26/67 7/7/68 16/23/69 15/22/70
f 20/28/71 8/8/72 2/10/73
f 12/19/74 13/20/75 21/29/76 7/7/77
f 18/25/78 17/24/79 7/13/80
f 5/5/81 12/19/82 7/7/83
f 17/24/84 10/17/85 5/14/86 7/13/87
f 14/21/88 8/8/89 20/28/90 15/22/91
f 21/29/92 13/20/93 8/8/94
f 21/29/95 22/30/96 16/23/97 7/7/98
