# This file uses centimeters as units for non-parametric coordinates.

mtllib Tree_TallFat.mtl
g default
v 2.677149 -0.017993 7.324772
v 2.867328 -0.017993 7.365178
v 2.720728 0.604780 7.328233
v 2.867328 0.682410 7.365178
v 2.711652 0.687504 7.162377
v 2.907733 0.790462 7.174999
v 2.717555 -0.017993 7.134594
v 2.907733 -0.017993 7.174999
v 2.910507 0.356293 7.274970
v 2.877429 0.543437 7.317631
v 2.857023 0.153631 7.199189
v 2.750006 0.387241 7.156007
v 2.816025 0.790462 7.138879
v 2.818160 0.428185 7.139977
v 2.865281 0.442106 7.180360
v 2.899056 0.478508 7.215840
v 2.776999 0.233532 7.140280
v 2.678618 0.356293 7.240220
v 2.775018 0.449687 7.331894
v 2.675934 0.515118 7.288625
v 2.688554 0.543436 7.271094
v 2.716078 0.169150 7.141537
v 2.688507 0.228408 7.271316
v 2.709087 0.248562 7.303552
v 2.688793 0.178334 7.198639
v 2.769282 0.790462 7.358892
v 2.850059 0.356293 7.330038
v 2.817066 0.169150 7.367866
v 2.750151 0.208856 7.331996
v 2.877429 0.169150 7.317631
v 2.887530 -0.017993 7.270088
v 2.737974 0.790462 7.329901
v 2.776899 0.790462 7.179283
v 2.829151 0.790462 7.194038
v 2.828408 0.790462 7.314476
v 2.552160 0.514160 7.443658
v 2.517109 0.553221 7.403056
v 2.539125 0.553822 7.438959
v 2.663588 0.481924 7.387776
v 2.610917 0.642201 7.368785
v 2.545220 0.548248 7.364185
v 2.575078 0.559234 7.348017
v 2.524734 0.758411 7.369069
v 2.536081 0.759627 7.364516
v 2.532582 0.753621 7.385060
v 2.556995 0.753463 7.371696
v 2.547587 0.756945 7.365158
v 2.653984 0.519954 7.306582
v 2.695910 0.590408 7.352632
v 2.591742 0.598011 7.416899
v 2.549169 0.757763 7.388665
v 2.623211 0.636817 7.330485
v 2.903394 0.634485 7.195420
v 2.961312 0.553599 7.315565
v 2.972788 0.573797 7.281118
v 2.971825 0.524213 7.285648
v 2.890411 0.608628 7.256526
v 2.884101 0.556497 7.192289
v 2.931922 0.547847 7.251547
v 2.892127 0.525450 7.261750
v 2.949827 0.531015 7.286477
vt 0.375000 0.000000
vt 0.625000 0.000000
vt 0.375000 0.250000
vt 0.625000 0.250000
vt 0.375000 0.500000
vt 0.625000 0.500000
vt 0.375000 0.750000
vt 0.625000 0.750000
vt 0.375000 1.000000
vt 0.625000 1.000000
vt 0.875000 0.000000
vt 0.875000 0.250000
vt 0.125000 0.000000
vt 0.125000 0.250000
vt 0.750000 0.125000
vt 0.687500 0.187500
vt 0.567683 0.692683
vt 0.125000 0.125000
vt 0.375000 0.625000
vt 0.500000 0.500000
vt 0.471341 0.596341
vt 0.596341 0.596341
vt 0.875000 0.165816
vt 0.625000 0.584184
vt 0.471341 0.658841
vt 0.250000 0.125000
vt 0.500000 0.125000
vt 0.375000 0.178043
vt 0.312500 0.187500
vt 0.375000 0.687500
vt 0.292710 0.082290
vt 0.125000 0.062500
vt 0.375000 0.089021
vt 0.195862 0.070862
vt 0.500000 0.250000
vt 0.625000 0.125000
vt 0.562500 0.062500
vt 0.468750 0.075761
vt 0.687500 0.062500
vt 0.750000 0.000000
vt 0.625000 0.875000
vt 0.500000 0.375000
vt 0.437500 0.437500
vt 0.531250 0.468750
vt 0.562500 0.312500
vt 0.375000 0.178043
vt 0.500000 0.125000
vt 0.375000 0.250000
vt 0.500000 0.125000
vt 0.375000 0.250000
vt 0.375000 0.178043
vt 0.375000 0.199966
vt 0.375000 0.178043
vt 0.375000 0.178043
vt 0.375000 0.250000
vt 0.375000 0.250000
vt 0.375000 0.199966
vt 0.375000 0.178043
vt 0.437500 0.187500
vt 0.375000 0.250000
vt 0.375000 0.250000
vt 0.375000 0.214021
vt 0.625000 0.542092
vt 0.875000 0.207908
vt 0.875000 0.207908
vt 0.687500 0.187500
vt 0.875000 0.165816
vt 0.781250 0.197704
vt 0.625000 0.563138
vt 0.875000 0.186862
vt 0.875000 0.176339
vt 0.781250 0.176658
vt 0.817378 0.172480
vn 0.263594 -0.057240 -0.962934
vn 0.263594 -0.057240 -0.962934
vn 0.263594 -0.057240 -0.962934
vn 0.263594 -0.057240 -0.962934
vn -0.083106 0.059220 -0.994780
vn -0.083106 0.059220 -0.994780
vn -0.083106 0.059220 -0.994780
vn -0.083106 0.059220 -0.994780
vn -0.901686 0.008926 -0.432300
vn -0.901686 0.008926 -0.432300
vn -0.901686 0.008926 -0.432300
vn -0.822311 0.127791 -0.554504
vn -0.822311 0.127791 -0.554504
vn -0.822311 0.127791 -0.554504
vn -0.822311 0.127791 -0.554504
vn -0.996874 -0.066842 0.042130
vn -0.996874 -0.066842 0.042130
vn -0.996874 -0.066842 0.042130
vn -0.988607 -0.035365 -0.146305
vn -0.988607 -0.035365 -0.146305
vn -0.988607 -0.035365 -0.146305
vn -0.988607 -0.035365 -0.146305
vn -0.872184 0.141774 0.468184
vn -0.872184 0.141774 0.468184
vn -0.872184 0.141774 0.468184
vn -0.479233 0.126561 0.868515
vn -0.479233 0.126561 0.868515
vn -0.479233 0.126561 0.868515
vn 0.359551 0.058331 -0.931301
vn 0.359551 0.058331 -0.931301
vn 0.359551 0.058331 -0.931301
vn 0.359551 0.058331 -0.931301
vn 0.956453 -0.062433 0.285130
vn 0.956453 -0.062433 0.285130
vn 0.956453 -0.062433 0.285130
vn 0.956453 -0.062433 0.285130
vn 0.000000 -1.000000 0.000000
vn 0.000000 -1.000000 0.000000
vn 0.000000 -1.000000 0.000000
vn 0.000000 -1.000000 0.000000
vn 0.000000 -1.000000 0.000000
vn -0.285452 -0.007267 0.958366
vn -0.285452 -0.007267 0.958366
vn -0.285452 -0.007267 0.958366
vn -0.285452 -0.007267 0.958366
vn 0.978167 0.000004 0.207822
vn 0.978167 0.000004 0.207822
vn 0.978167 0.000004 0.207822
vn -0.215665 -0.004231 -0.976458
vn -0.215665 -0.004231 -0.976458
vn -0.215665 -0.004231 -0.976458
vn -0.224393 -0.007988 -0.974466
vn -0.224393 -0.007988 -0.974466
vn -0.224393 -0.007988 -0.974466
vn -0.745371 -0.081171 -0.661690
vn -0.745371 -0.081171 -0.661690
vn -0.745371 -0.081171 -0.661690
vn 0.000000 1.000000 0.000000
vn 0.000000 1.000000 0.000000
vn 0.000000 1.000000 0.000000
vn 0.000000 1.000000 0.000000
vn -0.976338 -0.030684 0.214062
vn -0.976338 -0.030684 0.214062
vn -0.976338 -0.030684 0.214062
vn -0.976338 -0.030684 0.214062
vn -0.976338 -0.030684 0.214062
vn -0.858320 0.094353 0.504365
vn -0.831436 -0.212423 0.513411
vn -0.859388 0.059449 0.507856
vn -0.857416 0.111324 0.502438
vn -0.857416 0.111324 0.502438
vn 0.241089 0.173586 0.954853
vn 0.094631 0.233963 0.967629
vn 0.094631 0.233963 0.967629
vn 0.329667 0.133567 0.934601
vn 0.422183 0.088613 0.902169
vn 0.422183 0.088613 0.902169
vn -0.986381 0.164278 0.008129
vn -0.986381 0.164278 0.008129
vn -0.986381 0.164278 0.008129
vn -0.986381 0.164278 0.008129
vn -0.961021 0.275852 -0.018538
vn -0.961021 0.275852 -0.018538
vn -0.961021 0.275852 -0.018538
vn -0.961021 0.275852 -0.018538
vn -0.901584 0.430169 0.045833
vn -0.901584 0.430169 0.045833
vn -0.901584 0.430169 0.045833
vn -0.293924 -0.080404 0.952441
vn -0.293924 -0.080404 0.952441
vn -0.293924 -0.080404 0.952441
vn 0.475864 0.139540 0.868379
vn 0.475864 0.139540 0.868379
vn 0.475864 0.139540 0.868379
vn -0.446029 0.028348 0.894570
vn -0.446029 0.028348 0.894570
vn -0.446029 0.028348 0.894570
vn -0.446029 0.028348 0.894570
vn -0.446029 0.028348 0.894570
vn 0.381595 0.922522 -0.057780
vn 0.381595 0.922522 -0.057780
vn 0.381595 0.922522 -0.057780
vn -0.746378 -0.161549 -0.645617
vn -0.541776 -0.788569 -0.290925
vn -0.744676 -0.235748 -0.624404
vn -0.458141 0.540576 -0.705609
vn -0.458141 0.540576 -0.705609
vn -0.458141 0.540577 -0.705609
vn -0.741344 -0.056721 -0.668724
vn -0.741344 -0.056721 -0.668724
vn -0.352856 0.008366 -0.935640
vn -0.352856 0.008366 -0.935640
vn -0.352856 0.008366 -0.935640
vn -0.352856 0.008366 -0.935640
vn 0.759895 0.319678 0.566009
vn 0.746293 0.314746 0.586500
vn 0.773847 0.324708 0.543806
vn -0.419786 -0.843652 -0.334711
vn -0.419786 -0.843652 -0.334711
vn -0.419786 -0.843652 -0.334711
vn -0.419786 -0.843652 -0.334711
vn 0.314017 0.143646 -0.938488
vn 0.314017 0.143647 -0.938488
vn 0.314017 0.143647 -0.938488
vn 0.314017 0.143647 -0.938488
vn -0.407661 -0.848009 -0.338665
vn -0.407661 -0.848009 -0.338665
vn -0.407661 -0.848009 -0.338665
vn -0.407661 -0.848009 -0.338665
vn 0.557909 0.329617 0.761637
vn 0.557909 0.329617 0.761637
vn 0.557909 0.329617 0.761637
vn 0.557909 0.329617 0.761637
vn 0.304640 0.210188 0.928986
vn 0.304640 0.210188 0.928986
vn 0.304640 0.210188 0.928986
vn -0.444325 0.050943 -0.894416
vn -0.444324 0.050943 -0.894416
vn -0.444325 0.050943 -0.894416
vn -0.444325 0.050943 -0.894416
vn 0.784136 0.328395 0.526581
vn 0.784136 0.328395 0.526581
vn 0.140371 0.487850 -0.861568
vn 0.140371 0.487850 -0.861568
vn 0.140371 0.487850 -0.861568
vn 0.140371 0.487850 -0.861568
vn -0.047908 0.986128 0.158924
vn -0.047908 0.986128 0.158924
vn -0.047908 0.986128 0.158924
vn -0.047908 0.986128 0.158924
vn -0.047908 0.986128 0.158924
vn -0.833770 0.442730 -0.329875
vn -0.833770 0.442730 -0.329875
vn -0.833770 0.442730 -0.329875
vn 0.660702 -0.067707 -0.747589
vn 0.660702 -0.067707 -0.747589
vn 0.660702 -0.067707 -0.747589
vn -0.536395 -0.039669 -0.843034
vn -0.536395 -0.039669 -0.843034
vn -0.536395 -0.039669 -0.843034
vn 0.435207 0.104040 0.894299
vn 0.435207 0.104040 0.894299
vn 0.435207 0.104040 0.894299
vn 0.650477 0.001532 -0.759525
vn 0.650477 0.001532 -0.759525
vn 0.650477 0.001532 -0.759525
vn -0.151985 -0.080601 0.985091
vn -0.151985 -0.080602 0.985091
vn -0.151985 -0.080602 0.985091
vn 0.027844 0.002508 0.999609
vn 0.027844 0.002508 0.999609
vn 0.027844 0.002508 0.999609
vn 0.027844 0.002508 0.999609
vn -0.039557 0.561008 0.826865
vn -0.039557 0.561008 0.826865
vn -0.039557 0.561008 0.826865
vn -0.039557 0.561008 0.826865
vn -0.039557 0.561008 0.826865
vn 0.365828 -0.058875 -0.928818
vn 0.365828 -0.058875 -0.928818
vn 0.365828 -0.058875 -0.928818
vn 0.587603 0.736912 0.334189
vn 0.587603 0.736912 0.334189
vn 0.587603 0.736912 0.334189
vn 0.587603 0.736912 0.334189
vn -0.345140 0.877024 -0.334227
vn -0.345140 0.877024 -0.334227
vn -0.345140 0.877024 -0.334227
vn -0.345140 0.877024 -0.334227
vn -0.345140 0.877024 -0.334227
vn 0.243569 0.873556 0.421396
vn 0.243569 0.873556 0.421396
vn 0.243569 0.873556 0.421396
vn 0.978167 -0.000004 0.207820
vn 0.978167 -0.000004 0.207820
vn 0.978167 -0.000004 0.207820
vn 0.877191 -0.097117 0.470218
vn 0.877190 -0.097117 0.470218
vn 0.877190 -0.097117 0.470218
vn 0.684699 0.071626 -0.725298
vn 0.684699 0.071626 -0.725298
vn 0.684699 0.071626 -0.725298
vn 0.997371 0.059690 -0.041088
vn 0.997371 0.059690 -0.041088
vn 0.997371 0.059690 -0.041088
vn 0.997371 0.059690 -0.041088
vn 0.997371 0.059690 -0.041088
vn 0.807276 -0.098633 -0.581873
vn 0.807276 -0.098633 -0.581873
vn 0.807276 -0.098633 -0.581873
vn 0.807276 -0.098633 -0.581873
vn 0.807276 -0.098633 -0.581873
vn 0.978165 0.000001 0.207829
vn 0.978165 0.000001 0.207829
vn 0.978165 0.000001 0.207829
vn 0.978165 0.000001 0.207829
vn 0.946721 0.011028 0.321866
vn 0.946721 0.011028 0.321866
vn 0.946721 0.011028 0.321866
vn 0.019604 0.743006 0.668998
vn 0.019604 0.743006 0.668998
vn 0.019604 0.743006 0.668998
vn 0.019604 0.743006 0.668998
vn -0.213983 -0.704048 0.677146
vn -0.213983 -0.704048 0.677146
vn -0.213983 -0.704048 0.677146
vn -0.213983 -0.704048 0.677146
vn 0.697899 -0.180905 -0.692972
vn 0.697899 -0.180905 -0.692972
vn 0.697899 -0.180905 -0.692972
vn 0.697899 -0.180905 -0.692972
vn 0.697899 -0.180905 -0.692972
vn 0.774505 -0.042082 -0.631167
vn 0.774505 -0.042082 -0.631167
vn 0.774505 -0.042082 -0.631167
vn 0.669828 0.063477 -0.739799
vn 0.669828 0.063477 -0.739799
vn 0.669828 0.063477 -0.739799
vn -0.202289 -0.733247 0.649174
vn -0.202289 -0.733247 0.649174
vn -0.202289 -0.733247 0.649174
vn 0.731608 0.027030 0.681189
vn 0.731608 0.027030 0.681189
vn 0.731608 0.027030 0.681189
vn 0.731608 0.027030 0.681189
vn 0.731608 0.027030 0.681189
vn 0.111958 -0.805835 0.581460
vn 0.111958 -0.805835 0.581460
vn 0.111958 -0.805835 0.581460
vn -0.035567 -0.953997 0.297700
vn -0.035567 -0.953997 0.297700
vn -0.035567 -0.953997 0.297700
s off
g Bushes_and_Trees:MapGamification:pCube198 Bushes_and_Trees:group1
usemtl Bushes_and_Trees:MapGamification:lambert6SG
f 17/25/1 12/19/2 14/21/3 11/17/4
f 17/25/5 7/7/6 22/30/7 12/19/8
f 7/13/9 25/34/10 22/32/11
f 25/34/12 18/26/13 12/18/14 22/32/15
f 18/26/16 25/34/17 23/31/18
f 25/34/19 7/13/20 1/1/21 23/31/22
f 24/33/23 23/31/24 1/1/25
f 1/1/26 29/38/27 24/33/28
f 7/7/29 17/25/30 11/17/31 8/8/32
f 30/39/33 31/40/34 8/11/35 9/15/36
f 31/41/37 2/10/38 1/9/39 7/7/40 8/8/41
f 28/37/42 29/38/43 1/1/44 2/2/45
f 31/40/46 30/39/47 2/2/48
f 13/20/49 14/21/50 5/5/51
f 14/21/52 12/19/53 5/5/54
f 12/18/55 18/26/56 5/14/57
f 35/45/58 34/44/59 33/43/60 32/42/61
f 18/26/62 23/31/63 24/33/64 20/28/65 21/29/66
s 1
f 37/46/67 36/47/68 38/48/69
f 37/46/67 38/48/69 45/55/70 43/54/71
s 2
f 50/60/72 51/61/73 45/55/74 38/48/75
f 36/47/76 39/49/77 50/60/72 38/48/75
s off
f 5/14/78 18/26/79 21/29/80 3/3/81
f 3/3/82 32/42/83 33/43/84 5/5/85
f 21/29/86 20/28/87 3/3/88
f 19/27/89 26/35/90 3/3/91
f 49/59/92 39/49/93 19/27/94
f 29/38/95 28/37/96 19/27/97 20/28/98 24/33/99
f 47/57/100 51/61/101 46/56/102
s 3
f 41/51/103 36/47/104 37/46/105
s off
f 48/58/106 3/3/107 20/28/108
s 3
f 44/53/109 41/51/103 37/46/105 43/54/110
s off
f 42/52/111 41/51/112 44/53/113 47/57/114
s 4
f 50/60/115 39/49/116 40/50/117
s off
f 39/49/118 48/58/119 20/28/120 19/27/121
f 40/50/122 42/52/123 47/57/124 46/56/125
f 39/49/126 36/47/127 41/51/128 48/58/129
f 3/3/130 40/50/131 49/59/132 19/27/133
f 39/49/134 49/59/135 40/50/136
f 48/58/137 41/51/138 42/52/139 52/62/140
s 4
f 46/56/141 51/61/142 50/60/115 40/50/117
s off
f 48/58/143 52/62/144 40/50/145 3/3/146
f 44/53/147 43/54/148 45/55/149 51/61/150 47/57/151
f 52/62/152 42/52/153 40/50/154
f 14/21/155 15/22/156 11/17/157
f 15/22/158 8/8/159 11/17/160
f 27/36/161 28/37/162 2/2/163
f 15/22/164 14/21/165 13/20/166
f 26/35/167 19/27/168 4/4/169
f 19/27/170 28/37/171 27/36/172 4/4/173
f 26/35/174 4/4/175 35/45/176 32/42/177 3/3/178
f 15/22/179 13/20/180 6/6/181
f 6/6/182 34/44/183 35/45/184 4/4/185
f 34/44/186 6/6/187 13/20/188 5/5/189 33/43/190
f 57/68/191 55/65/192 53/64/193
f 10/16/194 6/12/195 4/4/196
f 27/36/197 10/16/198 4/4/199
f 15/22/200 16/24/201 8/8/202
f 16/23/203 60/72/204 10/16/205 9/15/206 8/11/207
f 15/22/208 6/6/209 53/63/210 58/69/211 16/24/212
f 6/12/213 10/16/214 57/68/215 53/64/216
f 55/65/217 54/66/218 56/67/219
f 54/66/220 55/65/221 57/68/222 10/16/223
f 61/73/224 60/72/225 16/23/226 56/67/227
f 58/70/228 53/64/229 55/65/230 56/67/231 59/71/232
f 59/71/233 16/23/234 58/70/235
f 16/23/236 59/71/237 56/67/238
f 54/66/239 61/73/240 56/67/241
f 9/15/242 10/16/243 27/36/244 2/2/245 30/39/246
f 61/73/247 54/66/248 10/16/249
f 60/72/250 61/73/251 10/16/252
g default
v 2.078693 0.887509 7.427859
v 3.031727 0.864118 7.711385
v 2.684455 2.018192 7.146093
v 2.794050 2.136837 7.175426
v 2.853340 2.068083 7.001759
v 2.992471 2.037624 7.043879
v 2.560158 0.851270 6.516444
v 3.464241 0.829081 6.785407
v 2.485561 1.666540 7.266156
v 2.791872 1.644953 6.749725
v 3.221275 1.277095 6.986922
v 3.029559 1.293560 7.437690
v 2.725279 1.480842 7.342320
v 3.360116 0.843847 7.281755
v 3.243745 1.282424 7.247508
v 2.988550 1.802793 7.293708
v 2.957718 2.130608 7.128628
v 2.723289 2.136362 7.058886
v 2.459990 1.371375 6.941561
v 2.083348 0.875311 6.907446
v 2.470174 1.329761 6.741668
v 2.386797 1.341693 7.143761
v 3.136063 1.310294 6.804879
v 2.830120 1.082327 6.702962
v 2.555210 0.686033 7.569622
v 2.676394 1.269811 7.374166
v 3.110359 1.784627 7.011722
v 2.927392 2.050100 7.188059
v 2.527850 1.793111 7.016578
v 2.844169 1.972456 6.991685
v 2.827222 2.054190 7.228687
v 3.366037 0.851059 7.601201
v 2.660013 1.507328 6.855782
v 2.424925 1.077979 7.435911
vt 0.375000 0.000000
vt 0.625000 0.000000
vt 0.375000 0.250000
vt 0.625000 0.250000
vt 0.375000 0.500000
vt 0.625000 0.500000
vt 0.375000 0.750000
vt 0.625000 0.750000
vt 0.375000 1.000000
vt 0.625000 1.000000
vt 0.875000 0.000000
vt 0.875000 0.250000
vt 0.125000 0.000000
vt 0.125000 0.250000
vt 0.375000 0.163050
vt 0.125000 0.163050
vt 0.375000 0.586951
vt 0.625000 0.586951
vt 0.875000 0.163050
vt 0.625000 0.163050
vt 0.500000 0.163050
vt 0.625000 0.875000
vt 0.750000 0.163050
vt 0.750000 0.000000
vt 0.625000 0.206525
vt 0.625000 0.373690
vt 0.748690 0.250000
vt 0.251310 0.250000
vt 0.375000 0.373690
vt 0.251310 0.163049
vt 0.375000 0.876310
vt 0.251310 0.000000
vt 0.188155 0.081525
vt 0.313155 0.081525
vt 0.500000 0.668475
vt 0.437500 0.709238
vt 0.500000 0.000000
vt 0.500000 1.000000
vt 0.500000 0.081525
vt 0.875000 0.206525
vt 0.750000 0.228262
vt 0.625000 0.543475
vt 0.251310 0.206525
vt 0.125000 0.206525
vt 0.375000 0.543475
vt 0.625000 0.228262
vt 0.625000 0.937500
vt 0.687500 0.000000
vt 0.188155 0.163049
vt 0.437500 0.040762
vn 0.194038 0.171413 -0.965902
vn 0.194038 0.171413 -0.965902
vn 0.194038 0.171413 -0.965902
vn 0.271083 0.392685 -0.878813
vn 0.271083 0.392684 -0.878813
vn 0.271083 0.392685 -0.878813
vn -0.607992 0.241638 -0.756278
vn -0.607992 0.241638 -0.756278
vn -0.607992 0.241638 -0.756278
vn -0.779966 0.603572 -0.165388
vn -0.809724 0.550956 -0.201978
vn -0.813746 0.516359 -0.266816
vn -0.833265 0.552498 -0.020403
vn -0.833265 0.552498 -0.020403
vn -0.833265 0.552498 -0.020403
vn -0.011115 0.319544 0.947506
vn -0.011115 0.319544 0.947506
vn -0.011115 0.319544 0.947506
vn -0.422103 0.331610 0.843720
vn -0.422103 0.331610 0.843720
vn -0.422103 0.331610 0.843720
vn -0.422103 0.331610 0.843720
vn -0.009283 -0.998646 -0.051185
vn -0.009283 -0.998646 -0.051185
vn -0.009283 -0.998646 -0.051185
vn -0.009283 -0.998646 -0.051185
vn -0.009283 -0.998646 -0.051185
vn -0.009283 -0.998646 -0.051185
vn -0.009283 -0.998646 -0.051185
vn -0.009283 -0.998646 -0.051185
vn -0.169159 0.267391 0.948624
vn -0.169159 0.267391 0.948624
vn -0.169159 0.267391 0.948624
vn 0.286249 0.515991 0.807351
vn 0.286249 0.515991 0.807351
vn 0.286249 0.515991 0.807351
vn -0.083741 0.340793 0.936401
vn 0.066532 0.536501 0.841273
vn 0.006216 0.461778 0.886974
vn 0.935349 0.342692 -0.087660
vn 0.859510 0.504098 -0.084421
vn 0.920464 0.380986 -0.087159
vn 0.945093 0.265635 0.190360
vn 0.945093 0.265635 0.190360
vn 0.945093 0.265635 0.190360
vn 0.966739 0.254666 -0.023666
vn 0.966739 0.254666 -0.023666
vn 0.966739 0.254666 -0.023666
vn 0.538594 0.620264 0.570254
vn 0.600556 0.467032 0.649009
vn 0.609309 0.438688 0.660527
vn 0.972221 0.216783 -0.088265
vn -0.864743 0.384595 -0.322966
vn -0.864743 0.384595 -0.322966
vn -0.864743 0.384595 -0.322966
vn -0.064689 0.246260 0.967043
vn -0.031522 0.248415 0.968141
vn -0.031522 0.248415 0.968141
vn -0.060561 0.246543 0.967238
vn -0.824756 0.519998 -0.222214
vn -0.934021 0.327290 -0.143131
vn -0.181243 0.289730 0.939791
vn -0.181243 0.289730 0.939791
vn -0.181243 0.289730 0.939791
vn -0.567025 0.369881 -0.735983
vn -0.606585 0.771601 -0.191536
vn 0.379139 0.102213 -0.919677
vn 0.379139 0.102213 -0.919677
vn 0.379139 0.102213 -0.919677
vn 0.379139 0.102213 -0.919677
vn -0.514961 0.368887 -0.773781
vn -0.436199 0.464899 -0.770454
vn -0.436199 0.464899 -0.770454
vn -0.488505 0.402885 -0.773981
vn 0.747500 0.515863 -0.418484
vn 0.754017 0.610829 -0.241549
vn 0.754017 0.610829 -0.241549
vn 0.646056 0.269242 -0.714227
vn 0.582008 0.166091 -0.796041
vn 0.409529 0.498899 -0.763797
vn 0.409529 0.498899 -0.763797
vn 0.409529 0.498899 -0.763797
vn -0.926517 0.205183 -0.315383
vn -0.845986 0.519500 0.120111
vn -0.845986 0.519500 0.120111
vn -0.845986 0.519500 0.120111
vn -0.681360 0.093367 -0.725969
vn -0.388632 0.586852 -0.710331
vn -0.388632 0.586852 -0.710331
vn -0.388632 0.586852 -0.710331
vn 0.219179 0.700723 -0.678931
vn 0.130004 0.923538 -0.360801
vn 0.191186 0.793945 -0.577147
vn -0.713462 0.552495 0.430954
vn -0.713462 0.552495 0.430954
vn -0.713462 0.552495 0.430954
vn 0.862765 0.356443 0.358586
vn 0.862765 0.356443 0.358586
vn 0.862765 0.356443 0.358586
vn 0.865772 0.381829 0.323488
vn 0.865772 0.381829 0.323488
vn 0.865772 0.381829 0.323488
vn 0.249329 0.192716 -0.949050
vn 0.249329 0.192716 -0.949050
vn 0.249329 0.192716 -0.949050
vn 0.249329 0.192716 -0.949050
vn -0.526761 0.480763 0.700992
vn -0.526761 0.480763 0.700992
vn -0.526761 0.480763 0.700992
vn -0.526761 0.480763 0.700992
vn -0.118354 0.242184 0.962985
vn -0.140173 0.258922 0.955673
vn -0.103910 0.186020 0.977036
vn -0.103910 0.186020 0.977036
vn -0.103910 0.186020 0.977036
vn 0.649411 0.254870 0.716454
vn 0.838230 0.376013 0.394949
vn 0.838230 0.376013 0.394949
vn 0.838230 0.376013 0.394949
vn -0.228966 0.219926 -0.948265
vn -0.439021 0.327209 -0.836776
vn -0.396097 0.305883 -0.865761
vn -0.228966 0.219927 -0.948265
vn -0.856146 0.457969 0.239328
vn 0.462567 0.417303 0.782234
vn 0.462567 0.417303 0.782234
vn 0.462567 0.417303 0.782234
vn 0.462567 0.417303 0.782234
vn 0.462567 0.417303 0.782234
vn 0.462567 0.417303 0.782234
vn 0.031408 0.999239 -0.023140
vn 0.302896 0.881005 -0.363435
vn 0.302896 0.881005 -0.363435
vn 0.302896 0.881005 -0.363435
s off
g Bushes_and_Trees:group1 Bushes_and_Trees:MapGamification:pCube199
usemtl Bushes_and_Trees:MapGamification:lambert5SG
f 69/81/253 85/109/254 84/108/255
f 85/109/256 69/81/257 68/80/258
f 81/105/259 82/106/260 68/86/261
s 1
f 82/106/262 81/105/263 80/103/264
s off
f 62/74/265 83/107/266 81/105/267
f 95/123/268 86/110/269 87/112/270
f 63/75/271 74/94/272 87/112/273 86/110/274
f 68/80/275 69/81/276 75/95/277 93/120/278 63/83/279 86/111/280 62/82/281 81/104/282
f 86/110/283 95/123/284 62/74/285
f 93/121/286 73/93/287 63/75/288
s 2
f 74/94/289 63/75/290 73/93/291
s 3
f 76/96/292 69/84/293 72/92/294
s off
f 69/84/295 76/96/296 75/97/297
f 76/96/298 93/121/299 75/97/300
s 4
f 93/121/301 76/96/302 73/93/303
s 3
f 88/113/304 76/96/292 72/92/294
s off
f 83/107/305 62/74/306 70/88/307
s 5
f 70/88/308 95/123/309 87/112/310 74/94/311
s 1
f 80/103/264 81/105/263 83/107/312 70/88/313
s off
f 95/123/314 70/88/315 62/74/316
s 1
f 94/122/317 82/106/318 80/103/264
s off
f 71/90/319 84/108/320 85/109/321 68/80/322
s 7
f 71/89/323 68/86/324 82/106/325 94/122/326
s 8
f 72/91/327 69/81/328 84/108/329 71/90/330
f 71/90/330 88/115/331 72/91/327
s off
f 91/118/332 88/115/333 71/90/334
s 1
f 90/116/335 94/122/317 80/103/264
s off
f 90/116/336 70/88/337 64/76/338
s 7
f 90/116/339 71/89/323 94/122/326
s off
f 71/89/340 90/116/341 91/117/342
s 1
f 70/88/313 90/116/335 80/103/264
s 9
f 67/79/343 79/102/344 78/99/345
s off
f 65/77/346 79/102/347 64/76/348
f 89/114/349 88/113/350 67/85/351
f 76/96/352 88/113/353 89/114/354
f 91/118/355 66/78/356 67/79/357 88/115/358
f 92/119/359 65/77/360 64/76/361 70/88/362
s 5
f 77/98/363 70/88/308 74/94/311
s 2
f 77/98/364 74/94/289 73/93/291
s off
f 70/88/365 77/98/366 92/119/367
s 4
f 76/96/302 77/98/368 73/93/303
s off
f 76/96/369 89/114/370 77/98/371
s 10
f 91/117/372 90/116/373 79/101/374 66/87/375
f 90/116/373 64/76/376 79/101/374
s off
f 89/114/377 67/85/378 78/100/379 65/77/380 92/119/381 77/98/382
s 9
f 79/102/344 65/77/383 78/99/345
s off
f 79/102/384 67/79/385 66/78/386
